<svg width="257" height="120" viewBox="0 0 257 120" fill="none" xmlns="http://www.w3.org/2000/svg">
<g clip-path="url(#clip0_15_551)">
<path d="M22 72.1028V48.274H48.2939V53.5807H27.8203V57.6206H45.4522V62.7561H27.8203V72.1028H22ZM109.989 72.1028V63.9887C109.989 63.2697 109.372 62.9616 109.372 62.9616C109.099 62.7904 108.277 62.7561 107.044 62.7561H107.318H95.0614V72.137H89.2412V48.274H107.387C110.537 48.274 112.693 48.7533 114.166 50.1912C115.638 51.6976 115.809 53.6491 115.843 55.6691V57.381C115.877 59.0928 114.953 60.6677 113.857 61.5921L114.063 61.6948C114.508 61.9002 114.748 62.2084 114.748 62.2084C115.569 63.2697 115.569 64.1599 115.569 65.2897V72.1028H109.989ZM106.839 57.6206C108.277 57.6206 109.099 57.6206 109.441 57.4152C109.441 57.4152 110.023 57.0728 110.057 56.3881V54.8132C110.057 54.0942 109.441 53.7861 109.441 53.7861C108.996 53.5464 108.208 53.5807 106.394 53.5807H95.0614V57.6206H107.079H106.839V57.6206ZM124.368 72.1028V53.5807H118.89V48.274H140.733V53.5807H130.188V72.1028H124.368ZM125.875 52.0742V51.2868V52.0742V52.0742ZM216.328 72.1028V53.5807H210.85V48.274H232.694V53.5807H222.149V72.1028H216.328ZM217.801 52.0742V51.2868V52.0742V52.0742ZM143.609 72.1028V48.274H149.43V72.1028H143.609V72.1028ZM184.488 72.1028V48.274H207.94V53.5807H190.308V57.6206H202.565V62.7561H190.308V66.7961H208.077V72.1028H184.488ZM159.632 72.1028H153.778V48.274H172.574C172.574 48.274 176.032 48.137 178.189 50.2939C178.189 50.2939 180.414 52.177 180.414 56.7305V72.1028H174.594V56.3539C174.594 56.3539 174.662 54.7447 174.114 54.1969C174.114 54.1969 173.635 53.5807 172.711 53.5807H159.632V72.1028ZM231.324 72.0686C229.715 72.0686 228.448 70.7676 228.448 69.1927C228.448 67.6178 229.749 66.3168 231.324 66.3168C232.899 66.3168 234.2 67.6178 234.2 69.1927C234.2 70.8018 232.933 72.0686 231.324 72.0686ZM231.324 66.6591C229.92 66.6591 228.791 67.789 228.791 69.2269C228.791 70.6306 229.92 71.7604 231.324 71.7604C232.728 71.7604 233.858 70.6306 233.858 69.2269C233.892 67.789 232.728 66.6591 231.324 66.6591V66.6591ZM230.263 67.5151H231.667C232.146 67.5151 232.625 67.6178 232.694 68.3368C232.694 68.7476 232.591 68.8845 232.283 69.1242C232.625 69.3296 232.625 69.3981 232.659 69.9459C232.694 70.3567 232.625 70.4252 232.796 70.6991H232.317L232.249 70.2883C232.18 69.9116 232.351 69.3296 231.701 69.3296H230.674V70.6991H230.263V67.5151V67.5151ZM230.674 67.8917V68.9873H231.701C231.975 68.9873 232.249 68.9188 232.283 68.5079C232.351 67.9601 231.94 67.8917 231.701 67.8917H230.674V67.8917Z" fill="#E0E0E0"/>
<path d="M50.8616 57.0043H60.5164V63.3382H50.8616V57.0043ZM63.1868 48.0001H72.6704V54.3339H63.1868V48.0001ZM63.1868 65.9744H72.6704V72.3082H63.1868V65.9744ZM75.3067 57.0043H84.9957V63.3382H75.3067V57.0043ZM54.833 48.0001C52.8131 48.5136 51.2382 50.7732 50.8616 53.6491V54.3681H60.5164V48.0001H54.833ZM50.8616 65.9744V66.7619C51.2039 69.5008 52.6761 71.692 54.5934 72.3082H60.5506V65.9744H50.8616ZM84.9957 54.3339V53.6149C84.6191 50.7732 83.0442 48.5136 81.0242 47.9658H75.3067V54.2996H84.9957V54.3339ZM81.2639 72.3425C83.1469 71.692 84.6191 69.535 84.9957 66.7961V66.0086H75.3067V72.3425H81.2639Z" fill="#808686"/>
</g>
<defs>
<clipPath id="clip0_15_551">
<rect width="212.2" height="24.3424" fill="white" transform="translate(22 48)"/>
</clipPath>
</defs>
</svg>
