<svg width="257" height="120" viewBox="0 0 257 120" fill="none" xmlns="http://www.w3.org/2000/svg">
<path fill-rule="evenodd" clip-rule="evenodd" d="M62.715 43.0198C60.5729 41.7681 57.9432 41.7681 55.8011 43.0198L46.5108 48.4484C44.3398 49.717 43 52.0778 43 54.6346V65.365C43 67.9219 44.3398 70.2827 46.5108 71.5512L55.8011 76.9798C57.9432 78.2315 60.5729 78.2315 62.715 76.9798L72.0054 71.5512C74.1763 70.2827 75.5161 67.9219 75.5161 65.365V54.6346C75.5161 52.0778 74.1763 49.717 72.0054 48.4484L62.715 43.0198ZM52.5125 52.9074C52.5125 52.4505 52.1502 52.0801 51.7034 52.0801C51.2566 52.0801 50.8945 52.4505 50.8945 52.9074V62.2862C50.8945 62.2924 50.8949 62.2984 50.8952 62.3045C50.8954 62.3076 50.8956 62.3107 50.8958 62.3138L50.8945 62.3689C50.8945 65.2655 53.1989 67.6221 56.0316 67.6221C58.8643 67.6221 61.1689 65.2655 61.1689 62.3689C61.1689 60.3846 62.7478 58.7703 64.6881 58.7703C65.3073 58.7703 65.9156 58.9365 66.4473 59.2512C66.8339 59.4803 67.3288 59.345 67.5528 58.9495C67.7765 58.554 67.6444 58.0479 67.2576 57.8193C66.4799 57.359 65.5914 57.1156 64.6881 57.1156C61.8554 57.1156 59.551 59.4723 59.551 62.3689C59.551 64.3532 57.9721 65.9677 56.0316 65.9677C54.0911 65.9677 52.5125 64.3532 52.5125 62.3689C52.5125 60.3846 54.0911 58.7703 56.0316 58.7703C57.0207 58.7703 57.9534 59.1906 58.6197 59.9302C58.6197 59.9302 58.8633 60.218 59.1058 60.5489C59.1058 60.5489 59.3485 59.6389 59.9147 58.9442C59.8955 58.9205 59.879 58.8999 59.8642 58.8814C59.8009 58.8023 59.7674 58.7605 59.6779 58.6681C58.7162 57.6762 57.4117 57.1156 56.0316 57.1156C54.6706 57.1156 53.4326 57.6607 52.5125 58.5471V52.9074ZM62.288 65.0011C62.2313 64.9482 61.9192 64.6573 61.6139 64.1889C61.452 64.8507 60.8048 65.8436 60.8048 65.8436C60.8262 65.865 61.1224 66.1509 61.1443 66.1719C62.1037 67.1078 63.3588 67.6221 64.6881 67.6221C65.5914 67.6221 66.4799 67.3789 67.2576 66.9187C67.6444 66.6898 67.7765 66.1837 67.5528 65.7882C67.3288 65.3928 66.8339 65.2579 66.4473 65.4866C65.9156 65.8013 65.3073 65.9677 64.6881 65.9677C63.7936 65.9677 62.9481 65.6277 62.2954 65.008C62.2939 65.0066 62.2914 65.0043 62.288 65.0011Z" fill="#FCFCFC"/>
<path d="M87.3516 67.1252H92.661C95.671 67.1252 97.6359 65.2229 97.6359 62.7006C97.6359 60.67 96.5072 59.6012 95.0648 59.0669C96.0055 58.4684 96.6535 57.4637 96.6535 55.9675C96.6535 53.83 94.9812 51.949 92.222 51.949H87.3516V67.1252ZM89.2956 58.4684V53.7445H92.222C93.8107 53.7445 94.7513 54.8346 94.7513 56.1171C94.7513 57.4637 93.8107 58.4684 92.222 58.4684H89.2956ZM89.2956 65.3297V60.1784H92.7655C94.7304 60.1784 95.7338 61.2899 95.7338 62.7647C95.7338 64.261 94.7304 65.3297 92.7446 65.3297H89.2956ZM104.825 67.339C106.999 67.339 108.587 66.3557 109.528 64.7954L108.107 63.7907C107.459 64.9236 106.455 65.6504 104.846 65.6504C102.776 65.6504 101.292 64.1541 101.23 62.1449H109.8C109.821 61.9097 109.821 61.7815 109.821 61.5891C109.8 58.1691 107.584 56.224 104.846 56.224C101.669 56.224 99.4107 58.6607 99.4107 61.7815C99.4107 64.9236 101.585 67.339 104.825 67.339ZM104.783 57.8485C106.372 57.8485 107.73 58.8959 107.981 60.6486H101.355C101.689 58.8745 103.215 57.8485 104.783 57.8485ZM115.135 71.272L121.845 56.4377H119.838L116.264 64.5389L112.668 56.4377H110.682L115.26 66.5695L113.128 71.272H115.135ZM128.056 67.339C131.191 67.339 133.512 64.8595 133.512 61.7815C133.512 58.7035 131.191 56.224 128.056 56.224C124.9 56.224 122.579 58.7035 122.579 61.7815C122.579 64.8595 124.9 67.339 128.056 67.339ZM128.056 65.629C125.882 65.629 124.419 63.919 124.419 61.7815C124.419 59.644 125.882 57.934 128.056 57.934C130.23 57.934 131.672 59.644 131.672 61.7815C131.672 63.919 130.23 65.629 128.056 65.629ZM136.092 67.1252H137.89V60.0287C138.308 58.789 139.311 57.9126 140.774 57.9126C142.384 57.9126 143.387 58.9814 143.387 60.841V67.1252H145.164V60.5631C145.164 57.8912 143.555 56.224 141.192 56.224C139.876 56.224 138.621 56.7156 137.89 57.7844V56.4377H136.092V67.1252ZM152.854 67.339C154.212 67.339 155.425 66.8687 156.261 65.9496V67.1252H158.058V51.5215H156.261V57.6134C155.425 56.6942 154.212 56.224 152.854 56.224C149.739 56.224 147.586 58.7462 147.586 61.7815C147.586 64.8167 149.739 67.339 152.854 67.339ZM153 65.6504C150.889 65.6504 149.446 63.919 149.446 61.7815C149.446 59.644 150.889 57.9126 153 57.9126C154.547 57.9126 155.655 58.6821 156.261 59.6654V63.8762C155.655 64.8809 154.547 65.6504 153 65.6504Z" fill="#FCFCFC"/>
<path d="M168.363 67.3817C171.185 67.3817 173.589 65.9496 174.927 63.7052L173.296 62.7006C172.272 64.3892 170.537 65.5007 168.363 65.5007C165.123 65.5007 162.656 62.8716 162.656 59.5371C162.656 56.2026 165.123 53.5735 168.363 53.5735C170.537 53.5735 172.272 54.685 173.296 56.3736L174.927 55.369C173.589 53.1246 171.185 51.6925 168.363 51.6925C164.099 51.6925 160.691 55.1339 160.691 59.5371C160.691 63.9404 164.099 67.3817 168.363 67.3817ZM181.864 67.339C185 67.339 187.32 64.8595 187.32 61.7815C187.32 58.7035 185 56.224 181.864 56.224C178.708 56.224 176.387 58.7035 176.387 61.7815C176.387 64.8595 178.708 67.339 181.864 67.339ZM181.864 65.629C179.69 65.629 178.227 63.919 178.227 61.7815C178.227 59.644 179.69 57.934 181.864 57.934C184.038 57.934 185.48 59.644 185.48 61.7815C185.48 63.919 184.038 65.629 181.864 65.629ZM194.353 67.339C195.711 67.339 196.924 66.8687 197.76 65.9496V67.1252H199.557V51.5215H197.76V57.6134C196.924 56.6942 195.711 56.224 194.353 56.224C191.238 56.224 189.085 58.7462 189.085 61.7815C189.085 64.8167 191.238 67.339 194.353 67.339ZM194.499 65.6504C192.388 65.6504 190.945 63.919 190.945 61.7815C190.945 59.644 192.388 57.9126 194.499 57.9126C196.046 57.9126 197.154 58.6821 197.76 59.6654V63.8762C197.154 64.8809 196.046 65.6504 194.499 65.6504ZM207.543 67.339C209.717 67.339 211.306 66.3557 212.246 64.7954L210.825 63.7907C210.177 64.9236 209.174 65.6504 207.564 65.6504C205.495 65.6504 204.01 64.1541 203.948 62.1449H212.518C212.539 61.9097 212.539 61.7815 212.539 61.5891C212.518 58.1691 210.302 56.224 207.564 56.224C204.387 56.224 202.129 58.6607 202.129 61.7815C202.129 64.9236 204.303 67.339 207.543 67.339ZM207.501 57.8485C209.09 57.8485 210.449 58.8959 210.699 60.6486H204.073C204.408 58.8745 205.934 57.8485 207.501 57.8485Z" fill="#FCFCFC" fill-opacity="0.72"/>
</svg>
