<svg width="257" height="120" viewBox="0 0 257 120" fill="none" xmlns="http://www.w3.org/2000/svg">
<g clip-path="url(#clip0_15_571)">
<path fill-rule="evenodd" clip-rule="evenodd" d="M80.4311 36V82.8757H33.7419V36H80.4311Z" fill="#E0E0E0"/>
<path fill-rule="evenodd" clip-rule="evenodd" d="M64.6014 64.9474H69.4029C69.4667 64.9475 69.5289 64.9275 69.5806 64.8902C69.6323 64.8529 69.6709 64.8002 69.691 64.7397L71.4133 59.5591C71.4144 59.5556 71.4154 59.5521 71.4164 59.5485L72.9295 54.3421C72.9514 54.2661 72.9427 54.1844 72.9052 54.1147L72.793 53.9024C72.7671 53.8538 72.7284 53.8131 72.6812 53.7848C72.6339 53.7565 72.5798 53.7416 72.5247 53.7417H66.4237C66.3516 53.7415 66.2817 53.7671 66.2267 53.8137C66.1717 53.8604 66.1351 53.9252 66.1236 53.9964L65.2321 59.55C65.2321 59.5525 65.2321 59.5551 65.2321 59.5576L64.3027 64.5881C64.2944 64.632 64.296 64.6771 64.3072 64.7203C64.3184 64.7635 64.339 64.8037 64.3675 64.838C64.396 64.8724 64.4318 64.9 64.4722 64.9189C64.5126 64.9378 64.5567 64.9475 64.6014 64.9474V64.9474ZM52.7695 64.9474H57.5529C57.6166 64.9475 57.6788 64.9275 57.7305 64.8902C57.7822 64.8529 57.8209 64.8002 57.8409 64.7397L59.5754 59.5591C59.5765 59.5556 59.5775 59.5521 59.5784 59.5485L61.1006 54.3421C61.123 54.2662 61.1148 54.1846 61.0779 54.1147L60.9627 53.9024C60.9369 53.854 60.8984 53.8135 60.8514 53.7852C60.8045 53.7569 60.7507 53.7419 60.6958 53.7417H54.5494C54.4773 53.7415 54.4074 53.7671 54.3524 53.8137C54.2974 53.8604 54.2608 53.9252 54.2492 53.9964L53.3517 59.5515V59.5561L52.4723 64.5912C52.4646 64.6347 52.4665 64.6793 52.4778 64.7221C52.4892 64.7648 52.5097 64.8045 52.538 64.8384C52.5663 64.8724 52.6017 64.8997 52.6417 64.9186C52.6817 64.9374 52.7253 64.9472 52.7695 64.9474V64.9474ZM41.256 64.9474H46.0591C46.1229 64.9475 46.185 64.9275 46.2367 64.8902C46.2884 64.8529 46.3271 64.8002 46.3472 64.7397L48.0695 59.5591C48.0706 59.5556 48.0716 59.5521 48.0725 59.5485L49.5856 54.3421C49.6075 54.2661 49.5988 54.1844 49.5614 54.1147L49.4477 53.9024C49.4219 53.854 49.3834 53.8135 49.3364 53.7852C49.2895 53.7569 49.2357 53.7419 49.1808 53.7417H43.0784C43.0065 53.7419 42.937 53.7676 42.8823 53.8142C42.8276 53.8609 42.7912 53.9255 42.7797 53.9964L41.8882 59.55C41.8883 59.5525 41.8883 59.5551 41.8882 59.5576L40.9588 64.5881C40.9506 64.6319 40.9521 64.6769 40.9632 64.72C40.9743 64.763 40.9948 64.8032 41.0232 64.8375C41.0515 64.8718 41.0871 64.8994 41.1273 64.9184C41.1676 64.9374 41.2115 64.9473 41.256 64.9474V64.9474Z" fill="#0E1414"/>
<path fill-rule="evenodd" clip-rule="evenodd" d="M105.582 63.8513C105.582 67.7765 102.582 70.4282 97.7531 70.4282C95.2363 70.4282 92.8211 69.6702 91.4763 68.3618L92.9591 65.5038C93.9597 66.5712 95.5456 67.1564 97.3043 67.1564C99.9257 67.1564 101.513 65.8131 101.513 63.8513C101.513 61.8894 99.9606 60.6492 97.5802 60.6492C96.5114 60.6492 95.6153 60.8554 94.7875 61.3027L93.7187 59.3408L99.3738 52.8669H92.3739V49.63H104.479V52.0755L99.1676 57.7231C103.066 57.7913 105.582 60.2702 105.582 63.8513V63.8513ZM106.859 59.8229C106.859 53.5219 111.204 49.3556 117.757 49.3556C121.103 49.3556 123.827 50.4578 125.862 52.6607L123.379 55.1396C122.205 53.6598 120.24 52.5925 117.792 52.5925C113.653 52.5925 110.893 55.5186 110.893 59.8578C110.893 64.2637 113.688 67.1913 117.827 67.1913C120.619 67.1913 122.516 65.9511 123.827 63.9544L126.482 66.2953C124.517 68.9819 121.517 70.4282 117.757 70.4282C111.239 70.4282 106.859 66.1922 106.859 59.8229ZM126.861 62.6808C126.861 58.0324 130.069 54.9334 134.898 54.9334C139.692 54.9334 142.899 58.0324 142.899 62.6808C142.899 67.3293 139.692 70.4616 134.898 70.4616C130.104 70.4282 126.861 67.3293 126.861 62.6808V62.6808ZM138.968 62.6808C138.968 59.9609 137.312 58.1703 134.898 58.1703C132.415 58.1703 130.794 59.9609 130.794 62.6808C130.794 65.4008 132.448 67.1913 134.898 67.1913C137.347 67.1913 138.968 65.4008 138.968 62.6808ZM168.387 60.7523V70.1523H164.593V61.3724C164.593 59.4439 163.386 58.1703 161.523 58.1703C159.696 58.1703 158.454 59.4439 158.454 61.3724V70.1523H154.659V61.3724C154.659 59.4439 153.453 58.1703 151.591 58.1703C149.762 58.1703 148.521 59.4439 148.521 61.3724V70.1523H144.727V55.2093H148.383L148.452 56.9999C149.521 55.6566 151.107 54.9334 152.936 54.9334C154.902 54.9334 156.488 55.7597 157.454 57.1712C158.523 55.6915 160.281 54.9334 162.283 54.9334C165.938 54.9334 168.387 57.2743 168.387 60.7523V60.7523ZM194.528 60.7523V70.1523H190.737V61.3724C190.737 59.4439 189.524 58.1703 187.66 58.1703C185.84 58.1703 184.595 59.4439 184.595 61.3724V70.1523H180.802V61.3724C180.802 59.4439 179.595 58.1703 177.733 58.1703C175.905 58.1703 174.663 59.4439 174.663 61.3724V70.1523H170.87V55.2093H174.525L174.594 56.9999C175.664 55.6566 177.25 54.9334 179.078 54.9334C181.043 54.9334 182.631 55.7597 183.596 57.1712C184.665 55.6915 186.416 54.9334 188.418 54.9334C192.117 54.9334 194.528 57.2743 194.528 60.7523V60.7523ZM209.461 60.7523V70.1523H205.838L205.777 68.0176C204.777 69.5671 203.048 70.4282 201.214 70.4282C198.121 70.4282 196.013 68.5679 196.013 65.7798C196.013 62.887 198.561 60.9934 202.396 60.9934C203.427 60.9934 204.564 61.0965 205.701 61.3375V61.0616C205.701 59.0649 204.352 57.8595 202.078 57.8595C200.668 57.8595 199.531 58.2734 198.606 59.0649L196.938 56.8619C198.561 55.5535 200.425 54.9334 203.048 54.9334C206.884 54.9334 209.461 57.2409 209.461 60.7523V60.7523ZM205.671 63.921C204.739 63.7207 203.789 63.6166 202.836 63.6102C201.047 63.6102 199.91 64.4365 199.91 65.71C199.91 66.9154 200.698 67.7417 202.26 67.7417C204.019 67.7417 205.671 66.365 205.671 63.921V63.921ZM211.326 68.6726L212.736 66.3999C214.161 67.2262 215.571 67.5006 217.042 67.5006C218.437 67.5006 219.392 66.9154 219.392 66.0209C219.392 65.1248 218.331 64.6093 216.845 64.2303L215.602 63.8861C213.085 63.2312 211.357 62.2336 211.357 59.8911C211.357 56.9301 213.707 54.9683 217.254 54.9683C219.498 54.9683 221.424 55.4504 222.91 56.448L221.333 58.9269C220.165 58.2914 218.857 57.9603 217.527 57.9641C216.193 57.9641 215.223 58.4796 215.223 59.3059C215.223 60.2019 216.148 60.6143 217.467 60.9585L218.71 61.3042C221.257 61.9576 223.289 63.1281 223.289 65.7798C223.289 68.6028 220.802 70.4965 217.042 70.4965C214.707 70.4282 212.706 69.843 211.326 68.6726V68.6726Z" fill="#E0E0E0"/>
</g>
<defs>
<clipPath id="clip0_15_571">
<rect width="189.516" height="47" fill="white" transform="translate(33.7419 36)"/>
</clipPath>
</defs>
</svg>
