<svg width="257" height="120" viewBox="0 0 257 120" fill="none" xmlns="http://www.w3.org/2000/svg">
<path fill-rule="evenodd" clip-rule="evenodd" d="M46.8379 48.5052C41.6711 48.5052 38.4417 51.0887 37.15 56.2555C39.0876 53.6721 41.3481 52.7033 43.9315 53.3492C45.4055 53.7177 46.4591 54.787 47.6252 55.9707C49.5249 57.899 51.7236 60.1307 56.5258 60.1307C61.6926 60.1307 64.922 57.5472 66.2137 52.3804C64.2761 54.9639 62.0156 55.9326 59.4321 55.2868C57.9582 54.9183 56.9046 53.8489 55.7385 52.6652C53.8388 50.737 51.6401 48.5052 46.8379 48.5052ZM37.15 60.1307C31.9832 60.1307 28.7539 62.7142 27.4622 67.881C29.3997 65.2975 31.6602 64.3288 34.2437 64.9746C35.7176 65.3431 36.7712 66.4125 37.9373 67.5961C39.837 69.5244 42.0357 71.7561 46.8379 71.7561C52.0048 71.7561 55.2341 69.1727 56.5258 64.0058C54.5882 66.5893 52.3277 67.5581 49.7443 66.9122C48.2703 66.5437 47.2168 65.4744 46.0506 64.2906C44.151 62.3624 41.9523 60.1307 37.15 60.1307Z" fill="#808686"/>
<path d="M86.6435 56.9263V54.1419H83.3235V50.3935L80.4319 51.2503V54.1419H77.9688V56.9263H80.4319V63.352C80.4319 66.8326 82.199 68.0642 86.6435 67.5287V64.9317C84.448 65.0388 83.3235 65.0655 83.3235 63.352V56.9263H86.6435ZM99.3194 54.1419V56.0428C98.302 54.6506 96.7223 53.7938 94.6339 53.7938C90.9927 53.7938 87.9673 56.846 87.9673 60.8353C87.9673 64.7978 90.9927 67.8768 94.6339 67.8768C96.7223 67.8768 98.302 67.02 99.3194 65.601V67.5287H102.211V54.1419H99.3194ZM95.0891 65.1191C92.6795 65.1191 90.8588 63.3253 90.8588 60.8353C90.8588 58.3453 92.6795 56.5515 95.0891 56.5515C97.4987 56.5515 99.3194 58.3453 99.3194 60.8353C99.3194 63.3253 97.4987 65.1191 95.0891 65.1191ZM107.027 52.1338C108.044 52.1338 108.874 51.2771 108.874 50.2864C108.874 49.269 108.044 48.439 107.027 48.439C106.009 48.439 105.179 49.269 105.179 50.2864C105.179 51.2771 106.009 52.1338 107.027 52.1338ZM105.581 67.5287H108.473V54.1419H105.581V67.5287ZM111.831 67.5287H114.722V47.9839H111.831V67.5287ZM133.501 54.1419L130.877 63.3788L128.093 54.1419H125.335L122.524 63.3788L119.927 54.1419H116.875L121.078 67.5287H123.916L126.727 58.506L129.512 67.5287H132.35L136.553 54.1419H133.501ZM140.128 52.1338C141.146 52.1338 141.976 51.2771 141.976 50.2864C141.976 49.269 141.146 48.439 140.128 48.439C139.111 48.439 138.281 49.269 138.281 50.2864C138.281 51.2771 139.111 52.1338 140.128 52.1338ZM138.682 67.5287H141.574V54.1419H138.682V67.5287ZM151.973 53.7938C150.152 53.7938 148.706 54.4631 147.823 55.8554V54.1419H144.931V67.5287H147.823V60.3534C147.823 57.6224 149.322 56.4979 151.223 56.4979C153.044 56.4979 154.222 57.5689 154.222 59.6037V67.5287H157.113V59.3092C157.113 55.8286 154.972 53.7938 151.973 53.7938ZM170.829 48.7871V56.0428C169.812 54.6506 168.232 53.7938 166.144 53.7938C162.503 53.7938 159.477 56.846 159.477 60.8353C159.477 64.7978 162.503 67.8768 166.144 67.8768C168.232 67.8768 169.812 67.02 170.829 65.601V67.5287H173.721V48.7871H170.829ZM166.599 65.1191C164.189 65.1191 162.369 63.3253 162.369 60.8353C162.369 58.3453 164.189 56.5515 166.599 56.5515C169.009 56.5515 170.829 58.3453 170.829 60.8353C170.829 63.3253 169.009 65.1191 166.599 65.1191Z" fill="#E0E0E0"/>
<path d="M182.245 64.9247V53.7191H179.523V67.5288H187.513V64.9247H182.245ZM200.295 67.5288H203.254L198.401 53.7191H195.028L190.194 67.5288H193.134L193.962 65.043H199.467L200.295 67.5288ZM194.83 62.4981L196.724 56.8559L198.618 62.4981H194.83ZM214.913 60.3675C215.722 59.7164 216.215 58.7892 216.215 57.6055C216.215 55.2974 214.341 53.7191 212.013 53.7191H206.568V67.5288H212.427C214.814 67.5288 216.728 65.8913 216.728 63.524C216.728 62.0838 216.018 60.9988 214.913 60.3675ZM212.013 56.264C212.881 56.264 213.493 56.9151 213.493 57.7831C213.493 58.6511 212.861 59.3022 212.013 59.3022H209.29V56.264H212.013ZM212.427 64.9838H209.29V61.7287H212.427C213.354 61.7287 214.025 62.4192 214.025 63.3464C214.025 64.2934 213.354 64.9838 212.427 64.9838ZM224.989 67.8049C227.929 67.8049 230 66.2267 230 63.6423C230 60.8212 227.672 60.0913 225.482 59.4008C223.391 58.7695 222.858 58.3158 222.858 57.4675C222.858 56.6783 223.529 56.0865 224.673 56.0865C226.074 56.0865 226.824 56.8164 227.317 57.862L229.605 56.5402C228.678 54.6069 226.942 53.4429 224.673 53.4429C222.306 53.4429 220.136 54.9423 220.136 57.5464C220.136 60.1702 222.188 61.058 224.299 61.6695C226.35 62.2614 227.277 62.6559 227.277 63.6818C227.277 64.4512 226.705 65.1417 225.068 65.1417C223.352 65.1417 222.385 64.3131 221.892 63.0308L219.564 64.392C220.313 66.4437 222.168 67.8049 224.989 67.8049Z" fill="#808686"/>
</svg>
