<svg width="257" height="120" viewBox="0 0 257 120" fill="none" xmlns="http://www.w3.org/2000/svg">
<path d="M58.4439 43.2888C58.7678 43.1153 59.9847 42.6952 60.3418 43.3714C60.6989 44.0476 59.678 44.8301 59.3306 45.0161C58.9832 45.2021 58.417 45.184 58.095 44.5742C57.7729 43.9645 58.12 43.4622 58.4439 43.2888ZM62.0665 49.9193C62.3904 49.7459 63.6073 49.3258 63.9644 50.0019C64.3215 50.6781 63.3006 51.4607 62.9531 51.6466C62.6057 51.8326 62.0395 51.8145 61.7175 51.2047C61.3955 50.595 61.7426 50.0927 62.0665 49.9193ZM61.7143 76C59.5951 76 57.5369 75.5837 55.5965 74.7644C53.7241 73.9713 52.0443 72.841 50.6035 71.4011C49.1607 69.9591 48.0277 68.2795 47.2363 66.4087C46.4165 64.4715 46 62.4138 46 60.2951C46 58.1764 46.4165 56.1186 47.2363 54.18C48.0291 52.31 49.1607 50.6297 50.6035 49.1898C52.045 47.7491 53.7248 46.6167 55.5965 45.8251C56.0816 45.6214 56.5924 45.5162 57.1156 45.5162C58.6859 45.5162 60.0975 46.4512 60.7101 47.8981C61.5487 49.8775 60.6173 52.1708 58.6367 53.0088C57.6963 53.4057 56.8495 53.9764 56.1211 54.7036C55.3928 55.433 54.8218 56.2786 54.424 57.2185C54.0124 58.1916 53.8052 59.2264 53.8052 60.2951C53.8052 61.3638 54.0124 62.3985 54.424 63.371C54.8218 64.3122 55.3928 65.1572 56.1211 65.8851C56.8481 66.6131 57.6949 67.1838 58.6367 67.582C59.6097 67.9927 60.645 68.1998 61.7143 68.1998C62.7843 68.1998 63.8196 67.9927 64.7932 67.582C65.7343 67.1838 66.5805 66.6131 67.3081 65.8851C68.0351 65.1579 68.6068 64.3129 69.0053 63.371C69.4169 62.3971 69.6255 61.3631 69.6255 60.2951C69.6255 58.1445 71.3753 56.395 73.527 56.395C75.6781 56.395 77.4286 58.1445 77.4286 60.2951C77.4286 62.4138 77.0128 64.4715 76.1916 66.4087C75.4016 68.2795 74.2685 69.9591 72.8264 71.4011C71.385 72.841 69.7038 73.9713 67.8327 74.7644C65.8923 75.5837 63.8335 76 61.7143 76ZM62.3005 46.9721C62.6619 46.7786 64.1502 46.24 64.5487 46.9945C64.9471 47.749 63.6775 48.6921 63.2898 48.8996C62.9022 49.1071 62.2704 49.0869 61.9111 48.4065C61.5517 47.7261 61.939 47.1656 62.3005 46.9721ZM60.9201 44.4896C61.2815 44.2961 62.7343 43.7765 63.1328 44.531C63.5312 45.2855 62.2971 46.2095 61.9095 46.4171C61.5218 46.6246 60.89 46.6044 60.5307 45.924C60.1714 45.2436 60.5586 44.6831 60.9201 44.4896Z" fill="#E0E0E0"/>
<path d="M90 71.4686L91.7548 49.6898C91.7548 49.6898 92.0469 47.7544 94.0574 47.7544H96.5945L101.923 62.0655C101.923 62.0655 105.643 51.9473 106.368 50.0739C106.862 48.8 107.895 47.7544 109.292 47.7544H111.883L113.72 71.4686H109.292L108.234 56.2058L103.84 67.4113H99.9811L95.6567 56.3952L94.4768 71.4686H90ZM149.424 56.5696C149.424 56.5696 148.392 59.691 146.238 58.7944C144.806 58.1987 144.61 57.8971 142.874 57.8971C141.15 57.8971 138.57 59.8674 138.637 62.7307C138.684 64.7361 139.44 66.2078 140.709 67.0717C141.434 67.5655 142.327 67.8919 143.222 67.8919C144.856 67.8919 145.293 67.5344 146.611 66.9162C148.537 66.0133 149.563 68.2119 149.887 68.9577C149.224 69.7096 146.911 71.8999 143.156 71.8588C137.358 71.7952 134.03 67.6216 134.185 62.7307C134.339 57.8397 137.736 53.9208 143.02 53.9208C147.459 53.9208 149.424 56.5696 149.424 56.5696ZM186.822 56.4362C186.497 55.339 187.198 54.2971 188.351 54.2971H190.834L193.822 66.1675C193.822 66.1675 196.06 57.7726 196.428 56.4362C196.86 54.782 198.061 54.3473 198.874 54.3473C199.75 54.3473 200.842 54.3473 200.842 54.3473L204.009 66.1948C204.009 66.1948 206.141 57.8628 206.429 56.5233C206.765 54.9533 207.914 54.2902 208.881 54.2902H211.586L206.608 71.4383H201.896L198.915 60.8776L195.961 71.4383H191.193C191.193 71.4383 187.242 57.8584 186.822 56.4362ZM152.404 50.1951C152.404 48.2984 153.737 47.7143 154.604 47.7143C155.47 47.7143 157.545 47.7143 161.473 47.7143C163.187 47.7143 168.481 49.0023 168.481 55.4652C168.481 61.7234 163.907 63.4144 161.473 63.4144H156.898V71.4514H152.404V50.1951ZM156.879 51.8198L156.867 59.3276L160.68 59.3124C160.68 59.3124 163.98 59.4742 163.98 55.3996C163.98 52.6329 161.974 51.8198 160.547 51.8198H156.879ZM171.122 56.1409C171.122 56.1409 173.677 53.9132 177.756 53.9133C181.607 53.9135 184.514 55.8955 184.514 61.2501C184.514 66.6048 184.453 71.4669 184.453 71.4669L180.378 71.4122L180.422 69.4286C180.422 69.4286 179.148 71.7663 175.808 71.8362C173.201 71.8907 170.203 70.4005 170.118 66.4744C170.045 63.0867 172.816 61.6904 174.555 61.1921C177.376 60.3838 180.107 60.5194 180.107 60.5194C180.107 60.5194 180.422 57.8018 177.38 57.8018C175.487 57.8018 175.012 58.4114 174.02 58.6299C171.986 59.0779 171.122 56.1409 171.122 56.1409ZM180.165 63.8293C179.056 63.8293 177.616 63.8163 176.416 64.2195C175.481 64.5334 174.559 65.0703 174.559 66.2764C174.559 67.4825 175.538 68.1724 176.722 68.1724C179.084 68.1724 180.232 65.3811 180.165 63.8293ZM117.664 56.1409C117.664 56.1409 120.219 53.9132 124.298 53.9133C128.149 53.9135 131.056 55.8955 131.056 61.2501C131.056 66.6048 130.995 71.4669 130.995 71.4669L126.92 71.4122L126.964 69.4286C126.964 69.4286 125.69 71.7663 122.35 71.8362C119.743 71.8907 116.745 70.4005 116.66 66.4744C116.587 63.0867 119.358 61.6904 121.097 61.1921C123.918 60.3838 126.649 60.5194 126.649 60.5194C126.649 60.5194 126.964 57.8018 123.921 57.8018C122.029 57.8018 121.554 58.4114 120.562 58.6299C118.528 59.0779 117.664 56.1409 117.664 56.1409ZM126.707 63.8293C125.598 63.8293 124.157 63.8163 122.958 64.2195C122.023 64.5334 121.101 65.0703 121.101 66.2764C121.101 67.4825 122.08 68.1724 123.264 68.1724C125.626 68.1724 126.774 65.3811 126.707 63.8293Z" fill="#E0E0E0"/>
</svg>
