<svg width="257" height="120" viewBox="0 0 257 120" fill="none" xmlns="http://www.w3.org/2000/svg">
<path fill-rule="evenodd" clip-rule="evenodd" d="M96.2103 68.7235L94.4339 63.3349H87.0615L85.285 68.7235H81.3472L88.7491 47.7019H92.7462L100.148 68.7235H96.2103ZM90.7921 51.3437H90.7329C90.7329 51.3437 90.2591 53.4162 89.8446 54.6005L87.9793 60.226H93.4864L91.6211 54.6005C91.2362 53.4162 90.7921 51.3437 90.7921 51.3437ZM100.95 61.1735C100.95 56.377 103.792 53.2682 107.789 53.2682C111.105 53.2682 112.141 55.1927 112.141 55.1927H112.201C112.201 55.1927 112.171 54.8078 112.171 54.3341V47.7019H115.931V68.7235H112.378V67.48C112.378 66.9174 112.437 66.5029 112.437 66.5029H112.378C112.378 66.5029 111.105 69.0788 107.641 69.0788C103.555 69.0788 100.95 65.8515 100.95 61.1735ZM104.739 61.1735C104.739 64.0455 106.279 65.9108 108.5 65.9108C110.454 65.9108 112.289 64.4896 112.289 61.1439C112.289 58.8049 111.046 56.4954 108.529 56.4954C106.457 56.4954 104.739 58.1831 104.739 61.1735ZM118.539 64.3711C118.539 59.5747 125.023 59.249 127.48 59.249H127.984V59.0417C127.984 57.058 126.74 56.377 125.082 56.377C122.921 56.377 120.937 57.8278 120.937 57.8278L119.516 55.1335C119.516 55.1335 121.855 53.2682 125.437 53.2682C129.405 53.2682 131.714 55.4592 131.714 59.2786V68.7235H128.25V67.48C128.25 66.8878 128.309 66.4141 128.309 66.4141H128.25C128.28 66.4141 127.095 69.0788 123.661 69.0788C120.966 69.0788 118.539 67.3912 118.539 64.3711ZM122.328 64.1935C122.328 65.2002 123.069 66.1476 124.608 66.1476C126.592 66.1476 128.013 64.0159 128.013 62.1802V61.8249H127.362C125.437 61.8249 122.328 62.0913 122.328 64.1935ZM134.505 74.6451V53.6235H137.939V54.719C137.939 55.2815 137.88 55.7553 137.88 55.7553H137.939C137.939 55.7553 139.242 53.2682 142.795 53.2682C146.881 53.2682 149.486 56.4954 149.486 61.1735C149.486 65.97 146.555 69.0788 142.588 69.0788C139.597 69.0788 138.265 67.0063 138.265 67.0063H138.206C138.206 67.0063 138.265 67.5392 138.265 68.309V74.6451H134.505ZM138.146 61.2623C138.146 63.6013 139.42 65.9108 141.907 65.9108C143.979 65.9108 145.696 64.2231 145.696 61.2327C145.696 58.3607 144.157 56.4954 141.936 56.4954C139.982 56.4954 138.146 57.9166 138.146 61.2623ZM152.982 63.1868V56.8507H151.028V53.8603H153.071V49.508H156.742V53.8603H160.177V56.8507H156.742V62.7131C156.742 65.2002 158.696 65.5555 159.732 65.5555C160.147 65.5555 160.413 65.4962 160.413 65.4962V68.7827C160.413 68.7827 159.969 68.8715 159.259 68.8715C157.157 68.8715 152.982 68.2498 152.982 63.1868ZM161.955 64.3711C161.955 59.5747 168.439 59.249 170.897 59.249H171.4V59.0417C171.4 57.058 170.156 56.377 168.498 56.377C166.337 56.377 164.353 57.8278 164.353 57.8278L162.932 55.1335C162.932 55.1335 165.271 53.2682 168.854 53.2682C172.821 53.2682 175.131 55.4592 175.131 59.2786V68.7235H171.666V67.48C171.666 66.8878 171.726 66.4141 171.726 66.4141H171.666C171.696 66.4141 170.512 69.0788 167.077 69.0788C164.383 69.0788 161.955 67.3912 161.955 64.3711ZM165.745 64.1935C165.745 65.2002 166.485 66.1476 168.025 66.1476C170.008 66.1476 171.43 64.0159 171.43 62.1802V61.8249H170.778C168.854 61.8249 165.745 62.0913 165.745 64.1935ZM181.326 68.7235L175.848 53.6235H179.816L182.954 62.9796C183.25 63.8678 183.458 65.2594 183.487 65.2594H183.547C183.576 65.2594 183.783 63.8678 184.079 62.9796L187.218 53.6235H191.185L185.767 68.7235H181.326ZM193.023 51.0476V47.7019H196.754V51.0476H193.023ZM193.023 68.7235V53.6235H196.783V68.7235H193.023ZM198.537 66.8582L200.255 64.2231C200.255 64.2231 201.913 65.8812 204.37 65.8812C205.436 65.8812 206.354 65.4074 206.354 64.5192C206.354 62.269 199.011 62.5651 199.011 57.7094C199.011 54.8966 201.528 53.2682 204.785 53.2682C208.19 53.2682 209.848 54.9854 209.848 54.9854L208.456 57.7686C208.456 57.7686 207.065 56.4658 204.755 56.4658C203.778 56.4658 202.831 56.8804 202.831 57.8278C202.831 59.9596 210.173 59.6931 210.173 64.5488C210.173 67.0655 207.982 69.0788 204.4 69.0788C200.64 69.0788 198.537 66.8582 198.537 66.8582ZM213.58 63.1868V56.8507H211.626V53.8603H213.669V49.508H217.34V53.8603H220.775V56.8507H217.34V62.7131C217.34 65.2002 219.295 65.5555 220.331 65.5555C220.745 65.5555 221.012 65.4962 221.012 65.4962V68.7827C221.012 68.7827 220.568 68.8715 219.857 68.8715C217.755 68.8715 213.58 68.2498 213.58 63.1868Z" fill="#E0E0E0"/>
<path fill-rule="evenodd" clip-rule="evenodd" d="M65.9588 59.9349C70.6712 59.9349 74.4913 63.755 74.4913 68.4674C74.4913 73.1798 70.6712 76.9999 65.9588 76.9999C61.2464 76.9999 57.4263 73.1798 57.4263 68.4674C57.4263 63.755 61.2464 59.9349 65.9588 59.9349ZM54.3546 39.8834C59.0669 39.8834 62.8871 43.7036 62.8871 48.416C62.8871 51.3209 61.4354 53.8867 59.218 55.4277C54.5277 57.8572 51.3151 62.743 51.2831 68.3823C51.2828 73.1798 47.4627 76.9999 42.7503 76.9999C38.0379 76.9999 34.2178 73.1798 34.2178 68.4674C34.2178 65.1591 36.1006 62.2906 38.8531 60.8749C42.9329 58.3594 45.6788 53.8596 45.822 48.7495V48.416C45.822 43.7036 49.6422 39.8834 54.3546 39.8834Z" fill="#E0E0E0"/>
</svg>
