<svg width="257" height="120" viewBox="0 0 257 120" fill="none" xmlns="http://www.w3.org/2000/svg">
<path d="M68.7772 47.9665L68.4632 47.7924L68.7301 47.5707C70.724 45.9555 71.6974 43.9919 71.6974 41.7434C71.6974 38.893 70.1274 36.2644 67.6154 34.9343C66.3751 34.3009 64.8208 34 62.874 34H50V62.3448H63.0938C65.1348 62.3448 66.8304 61.9806 68.0707 61.3155C69.3424 60.6504 70.41 59.6528 71.1322 58.4019C71.8544 57.1984 72.2469 55.8207 72.2469 54.4114C72.2469 51.6403 71.0851 49.4867 68.7772 47.9665ZM54.6629 37.9429H62.9211C64.2085 37.9429 65.229 38.3071 66.0297 39.0672C66.8775 39.7798 67.27 40.7299 67.27 41.8859C67.3014 42.9468 66.8618 43.9603 66.0768 44.657C65.2761 45.4171 64.2556 45.7813 62.9682 45.7813H54.6629V37.9429ZM66.4693 56.8817C65.6215 57.6418 64.4754 58.006 62.9996 58.006H54.6629V49.7717H63.0467C64.0672 49.7717 64.8679 49.8984 65.4802 50.2151C66.9874 50.9277 67.741 52.147 67.741 53.8414C67.7567 55.1398 67.3171 56.1216 66.4693 56.8817ZM119.378 59.1619L119.473 59.0669L116.05 56.2958L115.956 56.4383C114.715 57.7368 113.334 58.3227 111.654 58.3227C110.241 58.3227 109.079 57.9268 108.2 57.1192C107.274 56.3116 106.818 55.3774 106.818 54.1105V53.7147H119.865V50.5318C119.865 48.0299 119.017 45.9238 117.384 44.2611C115.752 42.5984 113.616 41.7592 111.12 41.7592C108.718 41.7592 106.63 42.5668 104.903 44.182C103.176 45.7971 102.328 47.7607 102.328 50.0409V53.5722C102.328 55.5832 102.815 57.2934 103.788 58.671C105.562 61.2205 108.184 62.519 111.607 62.519C114.81 62.519 117.384 61.4105 119.378 59.1619ZM106.865 49.6292C107.007 48.6474 107.462 47.729 108.153 47.0323C108.954 46.2722 109.927 45.908 111.136 45.908C112.345 45.908 113.35 46.2722 114.15 47.0798C114.888 47.729 115.328 48.6474 115.391 49.6292L115.438 49.8984H106.818L106.865 49.6292ZM94.9648 53.4296C94.9648 54.6806 94.8392 55.6307 94.5252 56.1533C93.8187 57.5784 92.6098 58.2593 90.9299 58.2593C89.3756 58.2593 88.2295 57.6259 87.3817 56.375C87.0206 55.7891 86.8479 54.9023 86.8479 53.683V42.0125H82.4048V55.0448C82.4048 56.5175 82.5775 57.5943 82.9386 58.4019C83.5509 59.6528 84.5086 60.6979 85.6861 61.3947C86.8479 62.1548 88.2138 62.5506 89.5954 62.5665C91.5108 62.5665 93.1907 61.9331 94.5252 60.6821L94.9648 60.2862V62.3131H99.4079V42.0125H94.9648V53.4296ZM74.6804 34H79.1235V62.2973H74.6804V34ZM164.783 43.4852C163.401 42.3609 161.329 41.775 158.566 41.775C154.97 41.775 152.521 42.7568 151.202 44.6412L151.108 44.7362L154.609 47.4281L154.703 47.2856C155.064 46.6522 155.598 46.3039 156.352 46.1138C157.074 45.9713 157.796 45.9238 158.534 45.9396C160.214 45.9396 161.329 46.2088 161.957 46.6997C162.318 47.0164 162.538 47.6815 162.538 48.6633V50.0568H157.121C155.661 50.0568 154.499 50.231 153.651 50.6427C152.568 51.1494 151.626 51.9411 150.951 52.9229C150.276 53.8889 149.915 55.0448 149.931 56.2324C149.931 58.0693 150.637 59.5895 152.097 60.7929C153.51 61.9489 155.378 62.5348 157.639 62.5348C159.555 62.5348 161.062 62.0439 162.035 61.1097L162.475 60.6663V62.2814H166.965V48.2357C167.028 46.3989 166.227 44.6253 164.783 43.4852ZM162.522 55.2665C162.522 56.7392 162.302 57.1826 162.129 57.4201C161.643 58.1802 160.402 58.5444 158.314 58.5444C155.567 58.5444 154.185 57.6893 154.185 56.0424C154.185 55.1082 154.593 54.3797 155.378 53.9839C155.74 53.8097 156.352 53.7147 157.2 53.7147H162.522V55.2665V55.2665ZM139.474 41.7909C137.072 41.7909 134.984 42.5984 133.257 44.2136C131.53 45.8288 130.682 47.7924 130.682 50.0726V53.6038C130.682 55.6149 131.169 57.3251 132.142 58.7027C133.917 61.2522 136.586 62.5506 139.961 62.5506C143.164 62.5506 145.739 61.4264 147.733 59.1936L147.827 59.0986L144.404 56.3275L144.31 56.4225C143.07 57.7209 141.688 58.3068 140.008 58.3068C138.595 58.3068 137.433 57.911 136.554 57.1034C135.628 56.2958 135.173 55.3615 135.173 54.0947V53.6988H148.219V50.516C148.219 48.014 147.371 45.908 145.739 44.2453C144.106 42.5826 142.002 41.7909 139.474 41.7909ZM135.125 49.8984V49.9459V49.8984L135.157 49.6292C135.298 48.6474 135.753 47.729 136.444 47.0323C137.245 46.2722 138.218 45.908 139.459 45.908C140.652 45.908 141.672 46.2722 142.473 47.0798C143.211 47.729 143.651 48.6474 143.713 49.6292L143.76 49.8984H135.125V49.8984ZM134.183 49.9459L134.199 49.8984H134.183V49.9459ZM203.719 50.7535C202.745 50.2151 200.736 49.9459 197.674 49.8509C195.727 49.8034 194.785 49.1858 194.785 48.014C194.785 46.6681 195.806 46.0505 197.941 46.0505C200.202 46.0505 202.164 46.6839 203.719 47.8874L203.813 47.9824L206.56 44.4828L206.466 44.3878C204.017 42.646 201.222 41.7909 198.114 41.7909C195.853 41.7909 194.032 42.2817 192.744 43.2635C191.096 44.467 190.264 46.1297 190.264 48.0457C190.264 50.2785 191.284 51.9886 193.278 53.1129C194.032 53.5563 194.958 53.8255 196.12 53.968C196.779 54.063 197.8 54.0947 199.087 54.1422C200.375 54.1897 201.27 54.3164 201.788 54.6331C202.274 54.9023 202.541 55.3932 202.541 56.0583C202.541 57.5784 201.128 58.291 198.271 58.291C195.869 58.291 193.828 57.5309 192.148 55.9633L192.054 55.8682L188.851 58.9086L188.945 59.0036C191.3 61.3313 194.456 62.5348 198.271 62.5348C200.893 62.5348 202.981 61.9489 204.582 60.7929C206.184 59.5736 206.984 58.006 206.984 56.0899C207.047 53.6988 205.932 51.9095 203.719 50.7535ZM180.184 41.7434C178.238 41.7434 176.542 42.3293 175.208 43.5327L174.768 43.9286V42.0125H170.278V62.2973H174.768V49.7559C174.768 48.7741 175.16 47.8715 176.008 47.1114C176.762 46.3514 177.782 45.9396 178.85 45.9396C179.902 45.908 180.922 46.3355 181.645 47.1114C182.445 47.8715 182.838 48.7741 182.838 49.8034V62.2973H187.281V48.6791C187.297 46.8106 186.543 45.0212 185.193 43.7544C183.874 42.4243 182.178 41.7434 180.184 41.7434ZM122.911 59.1144C122.911 60.6821 122.785 61.7589 122.518 62.3448C121.671 64.1817 120.258 65.0684 118.075 65.0684H117.95V65.1951C117.95 68.0612 117.95 69.4072 118.075 69.6289H118.122C121.325 69.6289 123.9 68.3304 125.847 65.781C127.04 64.1658 127.621 62.1548 127.621 59.6845V34H122.911V59.1144Z" fill="#FCFCFC"/>
<path d="M51.6171 82.3598V83.7058H50V70.5627H51.6328V73.9039C51.6328 74.6323 51.6014 75.2974 51.5857 75.7091H51.6328C52.2608 74.6323 53.4226 73.9673 54.6629 73.9831C57.0493 73.9831 58.6664 75.8675 58.6664 78.987C58.6664 82.0431 57.1278 83.9909 54.6001 83.9909C53.3441 83.9909 52.2765 83.4208 51.6642 82.3598H51.6171ZM54.4431 75.3607C52.4492 75.3607 51.5386 76.9759 51.5386 79.0028C51.5386 81.0614 52.512 82.629 54.4274 82.629C56.1544 82.629 57.0022 81.0772 57.0022 79.0028C57.0022 76.9284 56.1858 75.3607 54.4431 75.3607ZM59.7968 85.3843H59.8753C60.0637 85.511 60.4562 85.5585 60.8487 85.5585C61.4924 85.5585 61.9163 85.3052 62.246 84.4184C62.246 84.4026 62.6385 83.3099 62.5757 83.2149L58.9804 74.2048H60.7545L62.7013 79.462C62.8897 80.0163 63.0938 80.6338 63.2508 81.1405C63.345 81.4414 63.4078 81.7423 63.502 82.0273H63.5334L63.8003 81.1405C63.9573 80.6338 64.1457 80.0163 64.3498 79.462L66.2181 74.2048H67.898L63.9102 84.5609C63.1095 86.5561 62.4187 86.9995 61.1784 86.9995C60.6289 86.9995 60.0637 86.9203 59.7968 86.8095V85.3843ZM72.294 70.5469L75.1514 79.3037C75.3084 79.7787 75.4968 80.4913 75.6538 81.0772L75.9207 82.1223H75.9521L76.219 81.0614C76.376 80.4755 76.5487 79.7946 76.7057 79.3195L79.5317 70.5627H81.4L76.847 83.7058H74.8845L70.3786 70.5627L72.294 70.5469ZM85.1994 73.9831C86.5967 73.9831 87.6643 74.5373 88.4179 75.4557C89.1715 76.3742 89.5797 77.736 89.5797 79.367H82.3577C82.499 81.2197 83.4724 82.629 85.2936 82.629C86.6124 82.629 87.4916 82.0115 87.7742 80.998H89.3756C88.9517 82.7716 87.4445 83.975 85.2779 83.975C82.3891 83.975 80.6935 81.7423 80.6935 78.9711C80.6935 76.2 82.499 73.9831 85.1994 73.9831ZM87.8527 78.1635C87.7585 76.3267 86.8322 75.2499 85.2151 75.2499C83.5352 75.2499 82.6089 76.485 82.4205 78.1635H87.8527ZM92.7668 75.915C93.3477 74.8065 94.2897 74.0781 95.5457 74.0781C95.7498 74.0781 95.9539 74.1098 96.1423 74.1889V75.7408H96.0952C95.8754 75.6774 95.6556 75.6458 95.4358 75.6458C93.9757 75.6458 92.7354 76.7542 92.7354 78.5278V83.69H91.1026V74.2048H92.7197V75.915H92.7668V75.915ZM99.4079 70.5469V72.4471H97.7123V70.5469H99.4079ZM99.3765 74.2048V83.69H97.7437V74.2048H99.3765ZM105.185 76.8967C105.374 76.6275 105.656 76.3267 105.892 76.0733C106.018 75.915 106.159 75.7566 106.316 75.6141V75.5666L105.672 75.5983C105.311 75.6141 104.887 75.6141 104.557 75.6141H101.323V74.2206H108.388V75.2499L104.086 80.8713C103.882 81.1405 103.6 81.4731 103.333 81.7581C103.192 81.9165 103.05 82.0906 102.893 82.249V82.2965C103.129 82.2965 103.349 82.2965 103.568 82.2807C103.977 82.2648 104.4 82.249 104.762 82.249H108.561V83.69H100.978V82.4232L105.185 76.8967ZM113.915 73.9831C116.756 73.9831 118.483 76.2158 118.483 78.9711C118.483 81.7264 116.756 83.975 113.915 83.975C111.073 83.975 109.315 81.7423 109.315 78.9711C109.315 76.2 111.089 73.9831 113.915 73.9831ZM113.899 75.2816C111.968 75.2816 110.979 76.9126 110.979 78.9553C110.979 80.998 111.968 82.6132 113.899 82.6132C115.83 82.6132 116.819 80.998 116.819 78.9553C116.819 76.9126 115.83 75.2816 113.899 75.2816ZM121.466 75.5508C122.141 74.5848 123.068 73.9831 124.449 73.9831C126.428 73.9831 127.621 75.0757 127.621 77.0709V83.69H126.004V77.2609C126.004 76.0416 125.219 75.3607 123.931 75.3607C122.455 75.3607 121.419 76.4059 121.419 77.926V83.7058H119.802V74.2206H121.419V75.5666H121.466V75.5508Z" fill="#FCFCFC"/>
</svg>
