<svg width="257" height="120" viewBox="0 0 257 120" fill="none" xmlns="http://www.w3.org/2000/svg">
<g clip-path="url(#clip0_15_559)">
<path fill-rule="evenodd" clip-rule="evenodd" d="M212.942 65.5554L210.048 61.7834C210.096 61.7244 210.144 61.6654 210.19 61.6054C211.437 59.9984 212.071 58.0014 212.071 55.6734C212.071 54.4114 211.859 53.1954 211.439 52.0564C210.99 50.8404 210.314 49.7554 209.429 48.8274C208.517 47.8704 207.385 47.1224 206.064 46.6014C204.818 46.1114 203.411 45.8634 201.879 45.8634H194.584C193.562 45.8634 192.625 46.2254 191.893 46.8274C191.006 46.4274 190.088 46.1014 189.147 45.8634C187.837 45.5304 186.545 45.3614 185.304 45.3614C183.847 45.3614 182.478 45.5954 181.235 46.0564C180.09 46.4814 179.08 47.0874 178.206 47.8404C177.977 47.6454 177.726 47.4694 177.451 47.3224C176.26 46.6844 174.998 46.1934 173.697 45.8634C172.386 45.5304 171.093 45.3614 169.854 45.3614C168.397 45.3614 167.028 45.5954 165.785 46.0564C164.939 46.3694 164.171 46.7874 163.469 47.2824C162.693 46.4134 161.568 45.8634 160.311 45.8634L151.344 45.8654C150.077 45.8654 148.94 46.4214 148.164 47.3034C147.387 46.4214 146.25 45.8654 144.982 45.8654H141.609C140.341 45.8654 139.205 46.4214 138.427 47.3034C137.651 46.4214 136.514 45.8654 135.247 45.8654H130.559C128.929 45.8654 127.517 46.7864 126.808 48.1354C126.346 47.7694 125.861 47.4364 125.347 47.1414C123.285 45.9604 120.911 45.3614 118.29 45.3614C116.316 45.3614 114.467 45.6924 112.798 46.3474C111.083 47.0194 109.582 47.9854 108.337 49.2194C108.028 49.5244 107.737 49.8464 107.463 50.1824C105.197 45.3574 100.309 42.0004 94.6405 42.0004C90.1155 42.0004 86.0895 44.1424 83.4935 47.4594C82.7165 46.4934 81.5405 45.8634 80.2045 45.8634H69.9445C68.1095 45.8634 66.5515 47.0324 65.9625 48.6644C65.3245 48.0824 64.6345 47.5714 63.8855 47.1414C61.8225 45.9604 59.4485 45.3614 56.8275 45.3614C54.8535 45.3614 53.0055 45.6924 51.3365 46.3474C49.6205 47.0194 48.1195 47.9854 46.8745 49.2194C45.6145 50.4664 44.6365 51.9734 43.9675 53.6994C43.3255 55.3554 43.0005 57.1704 43.0005 59.0934C43.0005 61.0414 43.3335 62.8724 43.9895 64.5354C44.6615 66.2384 45.6265 67.7324 46.8575 68.9754C48.0935 70.2234 49.5795 71.2004 51.2735 71.8774C52.9255 72.5374 54.7465 72.8734 56.6845 72.8734C58.0795 72.8734 59.4395 72.6934 60.7275 72.3384C62.0465 71.9744 63.2845 71.4324 64.4045 70.7284C64.9555 70.3824 65.4725 69.9904 65.9595 69.5624C66.5465 71.1984 68.1065 72.3704 69.9445 72.3704H80.2045C82.5455 72.3704 84.4425 70.4734 84.4425 68.1344V66.3854C86.0835 68.8624 88.3925 71.7414 91.6445 74.9934C92.4715 75.8214 93.5565 76.2344 94.6405 76.2344C95.7255 76.2344 96.8095 75.8214 97.6365 74.9934C101.492 71.1384 104.022 67.8084 105.684 65.0504C106.34 66.5364 107.216 67.8614 108.32 68.9754C109.556 70.2234 111.042 71.2004 112.735 71.8774C114.387 72.5374 116.209 72.8734 118.147 72.8734C119.542 72.8734 120.902 72.6934 122.19 72.3384C123.509 71.9744 124.746 71.4324 125.867 70.7284C126.888 70.0864 127.796 69.2924 128.588 68.3784C128.868 68.7564 129.17 69.1134 129.5 69.4434C131.61 71.5534 134.613 72.6224 138.427 72.6224C141.704 72.6224 144.377 71.8304 146.398 70.2724C147.133 71.5264 148.492 72.3704 150.051 72.3704H160.311C161.289 72.3704 162.185 72.0374 162.902 71.4814C164.885 72.3994 166.995 72.8734 169.209 72.8734C170.766 72.8734 172.217 72.6494 173.523 72.2064C174.689 71.8104 175.727 71.2504 176.632 70.5534C179.098 72.0874 181.794 72.8734 184.66 72.8734C186.218 72.8734 187.669 72.6494 188.973 72.2064C189.882 71.8974 190.71 71.4844 191.463 70.9924C192.237 71.8374 193.347 72.3704 194.584 72.3704H199.271C200.092 72.3704 200.859 72.1374 201.508 71.7334C202.17 72.1434 202.942 72.3704 203.744 72.3704H209.581C211.193 72.3704 212.667 71.4544 213.38 70.0084C214.093 68.5614 213.924 66.8354 212.942 65.5554Z" fill="#E0E0E0"/>
<path fill-rule="evenodd" clip-rule="evenodd" d="M56.8276 61.6765H60.6786C60.5986 62.2025 60.4466 62.6495 60.2236 63.0155C60.0006 63.3825 59.7176 63.6815 59.3746 63.9125C59.0316 64.1435 58.6456 64.3115 58.2146 64.4145C57.7846 64.5185 57.3376 64.5705 56.8756 64.5705C56.0946 64.5705 55.4086 64.4385 54.8186 64.1755C54.2286 63.9125 53.7336 63.5415 53.3356 63.0635C52.9366 62.5855 52.6386 62.0195 52.4386 61.3655C52.2396 60.7115 52.1406 60.0025 52.1406 59.2375C52.1406 58.3915 52.2556 57.6265 52.4866 56.9405C52.7176 56.2555 53.0366 55.6695 53.4436 55.1825C53.8496 54.6975 54.3406 54.3225 54.9136 54.0585C55.4886 53.7955 56.1256 53.6645 56.8276 53.6645C57.6726 53.6645 58.4256 53.8795 59.0876 54.3095C59.7486 54.7405 60.2866 55.4495 60.7026 56.4385L65.1506 54.5965C64.3216 52.8915 63.1976 51.6315 61.7786 50.8185C60.3596 50.0055 58.7086 49.5985 56.8276 49.5985C55.3766 49.5985 54.0606 49.8295 52.8816 50.2915C51.7016 50.7545 50.6926 51.4005 49.8556 52.2295C49.0186 53.0585 48.3726 54.0585 47.9186 55.2305C47.4636 56.4025 47.2366 57.6905 47.2366 59.0935C47.2366 60.5125 47.4676 61.8075 47.9306 62.9805C48.3926 64.1515 49.0386 65.1565 49.8676 65.9935C50.6966 66.8305 51.6896 67.4805 52.8456 67.9425C54.0016 68.4055 55.2806 68.6365 56.6836 68.6365C57.7036 68.6365 58.6776 68.5085 59.6016 68.2535C60.5266 67.9985 61.3756 67.6275 62.1496 67.1415C62.9226 66.6555 63.5966 66.0495 64.1696 65.3235C64.7446 64.5985 65.1986 63.7655 65.5336 62.8245C65.7726 62.1545 65.9316 61.4295 66.0116 60.6485C66.0916 59.8665 66.1316 58.9975 66.1316 58.0415H56.8276V61.6765Z" fill="#0E1414"/>
<path fill-rule="evenodd" clip-rule="evenodd" d="M69.9443 68.134H80.2043V64.164H74.6313V61.054H79.8933V57.084H74.6313V54.071H80.2043V50.101H69.9443V68.134Z" fill="#0E1414"/>
<path fill-rule="evenodd" clip-rule="evenodd" d="M118.291 61.6765H122.141C122.062 62.2025 121.91 62.6495 121.687 63.0155C121.463 63.3825 121.181 63.6815 120.838 63.9125C120.495 64.1435 120.108 64.3115 119.678 64.4145C119.248 64.5185 118.801 64.5705 118.339 64.5705C117.557 64.5705 116.872 64.4385 116.282 64.1755C115.692 63.9125 115.197 63.5415 114.799 63.0635C114.4 62.5855 114.101 62.0195 113.902 61.3655C113.703 60.7115 113.603 60.0025 113.603 59.2375C113.603 58.3915 113.719 57.6265 113.95 56.9405C114.181 56.2555 114.5 55.6695 114.907 55.1825C115.313 54.6975 115.803 54.3225 116.377 54.0585C116.952 53.7955 117.589 53.6645 118.291 53.6645C119.136 53.6645 119.889 53.8795 120.551 54.3095C121.212 54.7405 121.75 55.4495 122.166 56.4385L126.614 54.5965C125.785 52.8915 124.661 51.6315 123.242 50.8185C121.822 50.0055 120.172 49.5985 118.291 49.5985C116.84 49.5985 115.524 49.8295 114.344 50.2915C113.165 50.7545 112.156 51.4005 111.319 52.2295C110.482 53.0585 109.836 54.0585 109.382 55.2305C108.927 56.4025 108.7 57.6905 108.7 59.0935C108.7 60.5125 108.931 61.8075 109.394 62.9805C109.856 64.1515 110.501 65.1565 111.331 65.9935C112.16 66.8305 113.152 67.4805 114.309 67.9425C115.464 68.4055 116.744 68.6365 118.147 68.6365C119.167 68.6365 120.14 68.5085 121.065 68.2535C121.99 67.9985 122.839 67.6275 123.612 67.1415C124.385 66.6555 125.059 66.0495 125.633 65.3235C126.208 64.5985 126.662 63.7655 126.997 62.8245C127.236 62.1545 127.395 61.4295 127.475 60.6485C127.554 59.8665 127.595 58.9975 127.595 58.0415H118.291V61.6765Z" fill="#0E1414"/>
<path fill-rule="evenodd" clip-rule="evenodd" d="M141.61 59.6555C141.61 60.1815 141.589 60.7195 141.55 61.2695C141.51 61.8205 141.386 62.3185 141.179 62.7645C140.971 63.2115 140.657 63.5735 140.235 63.8525C139.812 64.1325 139.21 64.2715 138.428 64.2715C137.647 64.2715 137.042 64.1325 136.611 63.8525C136.18 63.5735 135.866 63.2115 135.667 62.7645C135.466 62.3185 135.347 61.8205 135.307 61.2695C135.267 60.7195 135.248 60.1815 135.248 59.6555V49.8495H130.56V60.3015C130.56 63.1075 131.206 65.1555 132.498 66.4475C133.789 67.7385 135.766 68.3845 138.428 68.3845C141.091 68.3845 143.065 67.7385 144.348 66.4475C145.631 65.1555 146.273 63.1075 146.273 60.3015V49.8495H141.61V59.6555Z" fill="#0E1414"/>
<path fill-rule="evenodd" clip-rule="evenodd" d="M150.052 68.134H160.312V64.164H154.739V61.054H160.001V57.084H154.739V54.071H160.312V50.101H150.052V68.134Z" fill="#0E1414"/>
<path fill-rule="evenodd" clip-rule="evenodd" d="M171.768 57.132C171.385 57.005 170.998 56.885 170.608 56.773C170.217 56.662 169.867 56.53 169.556 56.379C169.245 56.227 168.994 56.048 168.802 55.84C168.612 55.633 168.515 55.37 168.515 55.051C168.515 54.589 168.707 54.215 169.09 53.927C169.472 53.64 169.966 53.497 170.573 53.497C171.05 53.497 171.544 53.596 172.055 53.796C172.566 53.995 173.076 54.302 173.586 54.716L175.452 51.057C174.558 50.579 173.625 50.216 172.653 49.969C171.68 49.722 170.747 49.598 169.855 49.598C168.898 49.598 168.033 49.742 167.26 50.029C166.487 50.316 165.832 50.719 165.298 51.236C164.764 51.755 164.35 52.377 164.055 53.102C163.76 53.828 163.613 54.637 163.613 55.53C163.613 56.423 163.752 57.16 164.032 57.742C164.31 58.324 164.677 58.806 165.131 59.189C165.586 59.571 166.104 59.879 166.686 60.11C167.268 60.341 167.862 60.552 168.468 60.744C168.978 60.919 169.413 61.078 169.771 61.222C170.13 61.365 170.421 61.521 170.644 61.688C170.868 61.856 171.027 62.039 171.122 62.238C171.218 62.438 171.266 62.673 171.266 62.944C171.266 63.39 171.079 63.789 170.704 64.14C170.329 64.491 169.759 64.666 168.994 64.666C168.325 64.666 167.647 64.514 166.961 64.212C166.275 63.909 165.581 63.446 164.88 62.824L162.872 66.603C164.816 67.959 166.929 68.636 169.209 68.636C170.309 68.636 171.293 68.488 172.163 68.194C173.032 67.899 173.765 67.485 174.364 66.95C174.961 66.416 175.415 65.774 175.726 65.025C176.038 64.276 176.193 63.438 176.193 62.513C176.193 61.142 175.837 60.03 175.128 59.177C174.418 58.324 173.299 57.642 171.768 57.132Z" fill="#0E1414"/>
<path fill-rule="evenodd" clip-rule="evenodd" d="M187.219 57.132C186.836 57.005 186.448 56.885 186.058 56.773C185.667 56.662 185.318 56.53 185.006 56.379C184.696 56.227 184.445 56.048 184.252 55.84C184.062 55.633 183.966 55.37 183.966 55.051C183.966 54.589 184.156 54.215 184.539 53.927C184.922 53.64 185.416 53.497 186.023 53.497C186.501 53.497 186.995 53.596 187.505 53.796C188.016 53.995 188.526 54.302 189.036 54.716L190.902 51.057C190.009 50.579 189.075 50.216 188.103 49.969C187.131 49.722 186.198 49.598 185.305 49.598C184.349 49.598 183.484 49.742 182.71 50.029C181.937 50.316 181.282 50.719 180.749 51.236C180.214 51.755 179.8 52.377 179.505 53.102C179.21 53.828 179.063 54.637 179.063 55.53C179.063 56.423 179.202 57.16 179.482 57.742C179.76 58.324 180.127 58.806 180.581 59.189C181.035 59.571 181.554 59.879 182.136 60.11C182.718 60.341 183.312 60.552 183.918 60.744C184.428 60.919 184.863 61.078 185.221 61.222C185.58 61.365 185.871 61.521 186.094 61.688C186.318 61.856 186.477 62.039 186.573 62.238C186.668 62.438 186.716 62.673 186.716 62.944C186.716 63.39 186.529 63.789 186.155 64.14C185.78 64.491 185.209 64.666 184.445 64.666C183.775 64.666 183.096 64.514 182.411 64.212C181.726 63.909 181.032 63.446 180.33 62.824L178.322 66.603C180.267 67.959 182.379 68.636 184.659 68.636C185.76 68.636 186.744 68.488 187.613 68.194C188.482 67.899 189.215 67.485 189.814 66.95C190.411 66.416 190.865 65.774 191.177 65.025C191.488 64.276 191.643 63.438 191.643 62.513C191.643 61.142 191.288 60.03 190.578 59.177C189.869 58.324 188.749 57.642 187.219 57.132Z" fill="#0E1414"/>
<path fill-rule="evenodd" clip-rule="evenodd" d="M202.285 57.5866C201.791 57.9696 201.082 58.1606 200.157 58.1606H199.271V53.7116H200.157C201.082 53.7116 201.791 53.9036 202.285 54.2856C202.779 54.6686 203.027 55.2186 203.027 55.9366C203.027 56.6536 202.779 57.2036 202.285 57.5866ZM203.912 60.7436C205.204 60.4406 206.18 59.8626 206.842 59.0096C207.504 58.1566 207.834 57.0446 207.834 55.6726C207.834 54.9076 207.71 54.1906 207.464 53.5206C207.216 52.8506 206.849 52.2616 206.363 51.7506C205.877 51.2406 205.259 50.8386 204.51 50.5436C203.761 50.2486 202.883 50.1006 201.879 50.1006H194.584V68.1336H199.271V61.1976L203.744 68.1336H209.581L203.912 60.7436Z" fill="#0E1414"/>
<path fill-rule="evenodd" clip-rule="evenodd" d="M94.6416 56.1921C93.2016 56.1921 92.0346 55.0231 92.0346 53.5841C92.0346 52.1361 93.2016 50.9721 94.6416 50.9721C96.0826 50.9721 97.2506 52.1371 97.2506 53.5841C97.2496 55.0231 96.0816 56.1921 94.6416 56.1921ZM104.579 56.1941C104.579 50.6951 100.14 46.2371 94.6406 46.2371C89.1436 46.2371 84.7046 50.6951 84.7046 56.1941C84.7046 56.1941 84.3716 61.7281 94.6406 71.9971C104.911 61.7281 104.579 56.1941 104.579 56.1941Z" fill="#0E1414"/>
</g>
<defs>
<clipPath id="clip0_15_559">
<rect width="170" height="40" fill="white" transform="translate(43 40)"/>
</clipPath>
</defs>
</svg>
